<svg xmlns="http://www.w3.org/2000/svg" viewBox="0 0 483.89 341.69"><defs><style>.cls-1{fill:#fd5b5c;}.cls-2,.cls-3{fill:#f7f7f7;}.cls-3{font-size:34px;font-family:Nudista-Bold, Nudista;font-weight:700;}</style></defs><title>Asset 1</title><g id="Layer_2" data-name="Layer 2"><g id="Layer_1-2" data-name="Layer 1"><path class="cls-1" d="M438.75,85.77c-1.69,13.25-4.5,26.23-9.67,38.6a63.42,63.42,0,0,0-3.68,11.39c-1.47,7-3.77,13.44-10.37,17.49a6.66,6.66,0,0,0-3.13,6c.4,5-2.56,7.69-6,10.14-3.22,2.28-5.37,5.3-5.06,9.21.81,10.22-6.61,14.57-13.46,19.17-2.26,1.52-4.2,2.6-3.88,5.61.89,8.36-3.4,14-9.89,18.28-6.94,4.54-13.39,9.92-21.4,12.73-2.88,1-4.18,3.61-5.37,6.26-3.31,7.41-7.79,9.87-15.47,7.85-4.62-1.22-7.07,1-7.82,4.68-1.92,9.34-8.73,13-16.75,15.11-5.71,1.52-10.63,3.6-13.32,9.37-1,2.14-3.32,3.3-5.56,4-6.68,2.1-12.66,5.89-20.39,5.46-4.52-.25-9.28,3.23-13.88,5.18-9.53,4-19,8.16-29.72,7.55a13.17,13.17,0,0,0-8.37,3c-6.23,4.66-13.39,5.72-20.81,5.67-10.21-.06-20,3.21-30.16,3.67-15.93.71-31.81,3.19-47.69,4-8.68.46-17.58,1.44-26.43.57-8.55-.84-19.24-14.63-17.31-22.94.49-2.11,1.06-4.2,1.56-6.3,1.53-6.39,4.67-11.15,11.48-13.15a28.65,28.65,0,0,0,12.13-6.71c2.62-2.53,6-2.57,9.41-1.51a24.31,24.31,0,0,0,16.16-.32,15.72,15.72,0,0,1,11.67.27c7.09,2.8,14.38,1.92,21.65.71,1.54-.26,3.16-.72,3.8-2.12,1.84-4,4.75-3.92,8.64-3.52,7.28.75,14.57,1.29,21.82,2.33a19.05,19.05,0,0,0,8.41-.62c4.54-1.42,8.86-3.33,13.95-3,3.65.27,6.39-2.6,8.33-5.66,2.86-4.53,6.86-5.46,12-5.1,9.33.66,18.18-1,25-8.23,2.1-2.22,4.59-1.4,7-.91,6.25,1.27,7,.9,8.68-5.39.91-3.43,3-5,6.44-5.06,17.95-.52,33.2-7.88,46.57-19.24,6.06-5.15,11.25-11.34,16.83-17.06,1.87-1.92,3.79-4.06,6.5-4.45,10-1.45,16.06-8.37,20.24-16.31,6.27-11.92,14.91-21.44,24.74-30.36a46.12,46.12,0,0,0,14.71-25.57,37.59,37.59,0,0,1,7.82-17.08,38.14,38.14,0,0,0,6.5-11.73c1.19-3.34,2.83-6.35,6.06-8.29,4.77-2.87,7.25-1.66,7.47,3.79C438.78,84.1,438.75,84.94,438.75,85.77Z"/><path class="cls-2" d="M137.06,236.63c-3.5,0-7-.6-10.37.93-3.69,1.68-5.35,4.65-6.25,8.46-1.38,5.82-4.69,7.31-10,4.56a25.13,25.13,0,0,1-13.56-17.69,164.63,164.63,0,0,0-15.5-44.14c-3.18-6.06-2.56-13.32-3.74-20-3.18-18-12-33.4-20.53-49.08Q32.62,74.41,8.35,29C6.07,24.76,3.7,20.54,1.51,16.24-1.13,11-.39,8.08,4.42,3.54,8.68-.47,12.3-1,17.05,1.67c6.43,3.66,10.75,9.25,14.42,15.55C46.37,42.77,57.75,70,69.52,97,75.77,111.37,81.83,125.8,88,140.2c3.55,8.29,5.14,8.86,13,4.83q3.11-1.6,6.24-3.17c13.27-6.66,23.43-5.22,34.1,5.16,11.09,10.79,18,24.3,24,38.3,2.55,6,4.82,12.06,7.17,18.11a13.78,13.78,0,0,1-1.18,13C163.22,228.69,153,237.58,137.06,236.63ZM115.8,152.55c-4.32,0-13.21,5.12-17.11,9.46-3.37,3.75-1.17,7.59-.58,11.37,2,12.49,4,25,7.67,37.11,1.19,4,3,5,6.84,2.79,7.65-4.39,15.46-8.51,23.26-12.62,2.23-1.17,3.41-2.63,2.7-5.15-3.11-11-5.38-22.37-9.76-33C126.53,156.95,122.72,152.49,115.8,152.55Z"/><path class="cls-2" d="M245.91,156.4c-.39,5.15-.75,10.29-1.17,15.44-.31,3.68,1.16,4.28,4.45,3.08,12.52-4.55,19.1-13.84,19.54-27.31.21-6.37-.95-12.61-1.11-18.93,0-1.22-.55-3.26,1.18-3.29,1.95,0,1.18,1.91,1.1,3.15-.28,4.72,2.76,7.65,5.72,10.61a25.18,25.18,0,0,1,3.1,31.37,89.25,89.25,0,0,1-10.91,13.64c-6.74,6.91-13.92,13.43-20,21-2.56,3.19-5.42,3.77-9.26,2.39a63.85,63.85,0,0,1-17.36-9.72c-3.8-2.92-5.18-6.51-3.81-11.41,3.71-13.31,7.26-26.67,10.53-40.09,1.33-5.47,1.83-11.16,2.56-16.77.2-1.56.72-3.69-1-4.55-1.57-.78-2.58,1.08-3.68,2-9.68,7.9-19.84,8-27.26.28-7.18-7.49-6.74-32.27.74-39.44,4.7-4.5,10.6-5,16.38-3.65,4.21,1,5.45-.53,6-4.06a21.41,21.41,0,0,1,.76-2.9c.29-.94.45-2.19,1.64-2.23s1.45,1.19,1.83,2.09c5,11.77,13.28,22.21,12.57,36.24-.38,7.57,2.62,15,4.76,22.39A61.13,61.13,0,0,1,245.91,156.4Zm-20.39-52.5c-.29-1.28-.73-3.73-1.41-6.12-1.43-5-3.32-6.08-8.48-4.85-9.36,2.22-13.18,8.61-10.36,17.9,1.07,3.52,1.59,7.84,6.26,8.82,3.83.8,9.5-2.57,11.89-6.91A16.51,16.51,0,0,0,225.52,103.89Z"/><path class="cls-2" d="M321.56,54.08c4.11,3.55,5.81,10.08,7.72,15a174.81,174.81,0,0,1,7.54,22.42c2.51,10.41,7,21.69-3,29-4.85,3.54-9.29.08-13.84-3.18-5.54-4-6-3.91-11.58,1.13-5.91,5.3-16,16.86-24.72,13.64-7.75-2.87-13.92-13.72-19.54-19.15a26.44,26.44,0,0,1-7.37-13c-1.35-4.91-6.17-14-4.28-19,1.78-4.67,7-3.71,10.58-1.81,5.79,3,5.47,9.21,7.3,14.83s14.12,25,20.67,17.76c1.72-1.92,2.13-6,3.28-8.41,1.64-3.43,3.43-6.27,4.5-10,1.59-5.57,3.16-11.18,4.74-16.78C305.61,69.32,308.75,43,321.56,54.08Z"/><path class="cls-2" d="M185.36,173.65c-11.25-.46-19.89-4.53-25.51-14.4-4.11-7.22-8.67-14.2-12.32-21.69-4.19-8.61-2.91-16.84,3.63-23.91a53.44,53.44,0,0,1,9.72-8.55c2.88-1.9,6-2.34,9-.66a34.93,34.93,0,0,1,11.73,10.64c1.86,2.68,1.21,5-1,7.1-3.67,3.38-7.4,6.7-11.08,10.06-2.53,2.31-2.78,4.79-.45,7.41,5.52,6.22,11.12,12.37,16.54,18.68,2.45,2.85,4.53,2.66,7.07.2s4.54-5.72,6.62-8.73c.56-.81,1.14-1.87,2.22-1.78,1.44.12,1.65,1.53,1.86,2.62C205.09,159.56,197.25,175,185.36,173.65Zm-13.15-55.73c.07-1.2-1.17-1.56-2.19-1.93-2.94-1.07-10.17,3.72-10.09,6.88,0,1.86.54,4,2.87,4.58C163.62,127.66,172.06,119.21,172.21,117.92Z"/><path class="cls-2" d="M346.54,73.66c-1.63-18.72,11.22-27.34,23.53-30.61,3.34-.89,5.93,0,7.74,2.91a64.93,64.93,0,0,1,6.53,14.54c1,3.05-.23,5.21-3.34,6.17-4,1.22-7.95,2.48-12,3.57-3.8,1-5.19,3.38-4.21,7.11,2.08,7.88,4.25,15.75,6.35,23.63,1,3.64,3.06,4.41,6.36,2.77s6.61-3.17,10-4.6c1.09-.47,2.28-2,3.54-.57.91,1,0,2.23-.34,3.3-4.19,13.62-20.58,18.37-32,9.29a28.87,28.87,0,0,1-10.93-20.07C347.15,85.3,346.94,79.47,346.54,73.66ZM365.4,64c2.75-1.09,5.73-2.18,8.62-3.45,2.12-.93,1.42-2.36.22-3.54a6,6,0,0,0-6.84-1.6c-3.11,1.2-4,3.89-4.43,6.72C362.74,63.56,363.73,64.24,365.4,64Z"/><text class="cls-3" transform="matrix(0.96, -0.27, 0.27, 0.96, 285.7, 329.38)">K</text><text class="cls-3" transform="matrix(0.94, -0.34, 0.34, 0.94, 306.12, 323.69)">O</text><text class="cls-3" transform="translate(328.53 315.46) rotate(-25.87)">R</text><text class="cls-3" transform="translate(349.64 305.1) rotate(-32.88)">E</text><text class="cls-3" transform="translate(368.38 292.94) rotate(-41.87)">A</text><text class="cls-3" transform="translate(385.54 277.07) rotate(-47.16)">N</text><text class="cls-3" transform="translate(401.51 259.66) rotate(-49.32)"> </text><text class="cls-3" transform="matrix(0.62, -0.78, 0.78, 0.62, 408.58, 251.59)">G</text><text class="cls-3" transform="matrix(0.59, -0.81, 0.81, 0.59, 423.05, 233.41)">R</text><text class="cls-3" transform="translate(435.95 215.37) rotate(-56.05)">I</text><text class="cls-3" transform="matrix(0.53, -0.85, 0.85, 0.53, 441.48, 207.28)">L</text><text class="cls-3" transform="matrix(0.5, -0.87, 0.87, 0.5, 452.09, 190.42)">L</text></g></g></svg>